<svg xmlns="http://www.w3.org/2000/svg" width="50" height="50" fill="none" viewBox="0 0 50 50"><rect width="49.083" height="49.083" x=".458" y=".458" stroke="#0F27BD" stroke-width=".917" opacity=".5" rx="12.375"/><path fill="#0F27BD" fill-rule="evenodd" d="M16.9791 24.9999C16.9791 24.6202 17.2869 24.3124 17.6666 24.3124L32.3329 24.3124C32.7126 24.3124 33.0204 24.6202 33.0204 24.9999C33.0204 25.3796 32.7126 25.6874 32.3329 25.6874H17.6666C17.2869 25.6874 16.9791 25.3796 16.9791 24.9999ZM19.9886 31.4166C19.9886 31.0369 20.2964 30.7291 20.6761 30.7291L32.3333 30.7291C32.713 30.7291 33.0208 31.0369 33.0208 31.4166C33.0208 31.7963 32.713 32.1041 32.3333 32.1041L20.6761 32.1041C20.2964 32.1041 19.9886 31.7963 19.9886 31.4166ZM25.2033 18.5833C25.2033 18.2036 25.5111 17.8958 25.8908 17.8958L32.3333 17.8958C32.713 17.8958 33.0208 18.2036 33.0208 18.5833C33.0208 18.9629 32.713 19.2708 32.3333 19.2708L25.8908 19.2708C25.5111 19.2708 25.2033 18.9629 25.2033 18.5833Z" clip-rule="evenodd"/></svg>